<svg width="20" height="20" viewBox="0 0 20 20" fill="none" xmlns="http://www.w3.org/2000/svg">
<g clip-path="url(#clip0_1028_11)">
<path d="M3.99412 10.8333C2.86818 8.92576 2.12326 6.70583 1.8202 4.23433C1.73142 3.51028 1.68703 3.14826 1.81687 2.77963C1.95042 2.40046 2.28787 2.01912 2.64796 1.84041C2.99804 1.66667 3.41218 1.66667 4.24047 1.66667C4.91529 1.66667 5.2527 1.66667 5.53711 1.77398C5.85357 1.89339 6.12622 2.10627 6.31882 2.38433C6.49191 2.63421 6.57374 2.96155 6.73741 3.61622L6.83932 4.02386C7.08137 4.99204 7.20239 5.47613 7.18416 5.95121C7.16801 6.37191 7.07231 6.78575 6.90212 7.17083C6.70993 7.60567 6.38867 7.98749 5.74614 8.75109L3.99412 10.8333ZM3.99412 10.8333C5.20671 12.8877 6.86121 14.5797 8.88161 15.8333M8.88161 15.8333C10.8518 17.0558 13.1699 17.8615 15.7655 18.1798C16.4897 18.2686 16.8518 18.313 17.2204 18.1832C17.5995 18.0496 17.9809 17.7122 18.1596 17.3521C18.3334 17.002 18.3334 16.5794 18.3334 15.7343C18.3334 15.0763 18.3334 14.7473 18.226 14.4629C18.1066 14.1464 17.8938 13.8738 17.6157 13.6812C17.3658 13.5081 17.0384 13.4263 16.3838 13.2626L15.7935 13.1151C14.8898 12.8891 14.4379 12.7761 13.9914 12.7857C13.5959 12.7941 13.2052 12.8728 12.8373 13.0183C12.422 13.1823 12.0492 13.4616 11.3034 14.0199L8.88161 15.8333Z" stroke="white" stroke-width="2" stroke-linecap="round" stroke-linejoin="round"/>
</g>
<defs>
<clipPath id="clip0_1028_11">
<rect width="20" height="20" fill="white"/>
</clipPath>
</defs>
</svg>
