<svg width="24" height="24" viewBox="0 0 24 24" fill="none" xmlns="http://www.w3.org/2000/svg">
<path d="M8 11C8 11.2761 7.77614 11.5 7.5 11.5C7.22386 11.5 7 11.2761 7 11M8 11C8 10.7239 7.77614 10.5 7.5 10.5C7.22386 10.5 7 10.7239 7 11M8 11H7M12.5 11C12.5 11.2761 12.2761 11.5 12 11.5C11.7239 11.5 11.5 11.2761 11.5 11M12.5 11C12.5 10.7239 12.2761 10.5 12 10.5C11.7239 10.5 11.5 10.7239 11.5 11M12.5 11H11.5M17 11C17 11.2761 16.7761 11.5 16.5 11.5C16.2239 11.5 16 11.2761 16 11M17 11C17 10.7239 16.7761 10.5 16.5 10.5C16.2239 10.5 16 10.7239 16 11M17 11H16M18.7165 21.0299C19.5964 21.5578 20.0363 21.8218 20.3947 21.847C20.996 21.8893 21.5642 21.5676 21.8373 21.0302C22 20.71 22 20.1969 22 19.1708V10C22 7.19974 22 5.79961 21.455 4.73005C20.9757 3.78924 20.2108 3.02433 19.27 2.54497C18.2004 2 16.8003 2 14 2H10C7.19974 2 5.79961 2 4.73005 2.54497C3.78924 3.02433 3.02433 3.78924 2.54497 4.73005C2 5.79961 2 7.19974 2 10V12C2 14.8003 2 16.2004 2.54497 17.27C3.02433 18.2108 3.78924 18.9757 4.73005 19.455C5.79961 20 7.19974 20 10 20H14.9983C15.6103 20 15.9163 20 16.2154 20.0362C16.7122 20.0962 17.1972 20.2306 17.6542 20.4347C17.9293 20.5576 18.1917 20.715 18.7165 21.0299Z" stroke="black" stroke-width="1.5" stroke-linecap="round" stroke-linejoin="round"/>
</svg>
