<svg width="176" height="59" viewBox="0 0 176 59" fill="none" xmlns="http://www.w3.org/2000/svg">
<path d="M0 10C0 4.47716 4.47716 0 10 0H166C171.523 0 176 4.47716 176 10V45C176 50.5228 171.523 55 166 55H138V50H166C168.761 50 171 47.7614 171 45V10C171 7.23857 168.761 5 166 5H10C7.23857 5 5 7.23857 5 10V45C5 47.7614 7.23857 50 10 50H38V55H10C4.47716 55 0 50.5228 0 45V10Z" fill="black"/>
<path d="M21.26 38C20.64 38 20.16 37.83 19.82 37.49C19.48 37.13 19.31 36.64 19.31 36.02V18.71C19.31 18.07 19.47 17.59 19.79 17.27C20.13 16.93 20.61 16.76 21.23 16.76C21.85 16.76 22.32 16.93 22.64 17.27C22.98 17.59 23.15 18.07 23.15 18.71V34.73H31.85C32.39 34.73 32.8 34.87 33.08 35.15C33.38 35.43 33.53 35.83 33.53 36.35C33.53 36.87 33.38 37.28 33.08 37.58C32.8 37.86 32.39 38 31.85 38H21.26Z" fill="black"/>
<path d="M35.897 38.24C35.417 38.24 35.027 38.13 34.727 37.91C34.447 37.69 34.277 37.4 34.217 37.04C34.157 36.66 34.227 36.24 34.427 35.78L42.347 18.23C42.607 17.65 42.917 17.24 43.277 17C43.657 16.74 44.087 16.61 44.567 16.61C45.027 16.61 45.437 16.74 45.797 17C46.177 17.24 46.497 17.65 46.757 18.23L54.707 35.78C54.927 36.24 55.007 36.66 54.947 37.04C54.887 37.42 54.717 37.72 54.437 37.94C54.157 38.14 53.787 38.24 53.327 38.24C52.767 38.24 52.327 38.11 52.007 37.85C51.707 37.57 51.437 37.15 51.197 36.59L49.247 32.06L50.867 33.11H38.207L39.827 32.06L37.907 36.59C37.647 37.17 37.377 37.59 37.097 37.85C36.817 38.11 36.417 38.24 35.897 38.24ZM44.507 21.02L40.307 31.01L39.527 30.05H49.547L48.797 31.01L44.567 21.02H44.507Z" fill="black"/>
<path d="M64.6241 38.24C64.0841 38.24 63.6341 38.12 63.2741 37.88C62.9341 37.62 62.6541 37.24 62.4341 36.74L54.6041 19.16C54.3841 18.66 54.3241 18.22 54.4241 17.84C54.5241 17.46 54.7341 17.16 55.0541 16.94C55.3741 16.72 55.7541 16.61 56.1941 16.61C56.7741 16.61 57.2041 16.74 57.4841 17C57.7841 17.24 58.0341 17.61 58.2341 18.11L65.3441 34.58H64.0541L71.1341 18.08C71.3541 17.6 71.6141 17.24 71.9141 17C72.2141 16.74 72.6341 16.61 73.1741 16.61C73.6141 16.61 73.9741 16.72 74.2541 16.94C74.5541 17.16 74.7441 17.46 74.8241 17.84C74.9041 18.22 74.8341 18.66 74.6141 19.16L66.7841 36.74C66.5641 37.24 66.2841 37.62 65.9441 37.88C65.6241 38.12 65.1841 38.24 64.6241 38.24Z" fill="black"/>
<path d="M76.0337 38.24C75.5537 38.24 75.1637 38.13 74.8637 37.91C74.5837 37.69 74.4137 37.4 74.3537 37.04C74.2937 36.66 74.3637 36.24 74.5637 35.78L82.4837 18.23C82.7437 17.65 83.0537 17.24 83.4137 17C83.7937 16.74 84.2237 16.61 84.7037 16.61C85.1637 16.61 85.5737 16.74 85.9337 17C86.3137 17.24 86.6337 17.65 86.8937 18.23L94.8437 35.78C95.0637 36.24 95.1437 36.66 95.0837 37.04C95.0237 37.42 94.8537 37.72 94.5737 37.94C94.2937 38.14 93.9237 38.24 93.4637 38.24C92.9037 38.24 92.4637 38.11 92.1437 37.85C91.8437 37.57 91.5737 37.15 91.3337 36.59L89.3837 32.06L91.0037 33.11H78.3437L79.9637 32.06L78.0437 36.59C77.7837 37.17 77.5137 37.59 77.2337 37.85C76.9537 38.11 76.5537 38.24 76.0337 38.24ZM84.6437 21.02L80.4437 31.01L79.6637 30.05H89.6837L88.9337 31.01L84.7037 21.02H84.6437Z" fill="black"/>
<path d="M100.188 38C99.5279 38 99.0179 37.83 98.6579 37.49C98.3179 37.13 98.1479 36.62 98.1479 35.96V18.89C98.1479 18.23 98.3179 17.73 98.6579 17.39C99.0179 17.03 99.5279 16.85 100.188 16.85H107.388C108.868 16.85 110.128 17.07 111.168 17.51C112.208 17.95 112.998 18.58 113.538 19.4C114.098 20.22 114.378 21.2 114.378 22.34C114.378 23.62 114.008 24.7 113.268 25.58C112.528 26.46 111.518 27.05 110.238 27.35V26.9C111.718 27.12 112.868 27.68 113.688 28.58C114.508 29.48 114.918 30.65 114.918 32.09C114.918 33.97 114.278 35.43 112.998 36.47C111.738 37.49 109.978 38 107.718 38H100.188ZM101.838 35.09H107.238C108.598 35.09 109.598 34.83 110.238 34.31C110.878 33.77 111.198 32.97 111.198 31.91C111.198 30.83 110.878 30.03 110.238 29.51C109.598 28.99 108.598 28.73 107.238 28.73H101.838V35.09ZM101.838 25.82H106.728C108.048 25.82 109.028 25.57 109.668 25.07C110.328 24.55 110.658 23.79 110.658 22.79C110.658 21.79 110.328 21.04 109.668 20.54C109.028 20.02 108.048 19.76 106.728 19.76H101.838V25.82Z" fill="black"/>
<path d="M128.282 38.3C126.242 38.3 124.452 37.85 122.912 36.95C121.392 36.05 120.212 34.79 119.372 33.17C118.532 31.53 118.112 29.61 118.112 27.41C118.112 25.75 118.352 24.26 118.832 22.94C119.312 21.6 119.992 20.46 120.872 19.52C121.772 18.56 122.842 17.83 124.082 17.33C125.342 16.81 126.742 16.55 128.282 16.55C130.342 16.55 132.132 17 133.652 17.9C135.172 18.78 136.352 20.03 137.192 21.65C138.032 23.27 138.452 25.18 138.452 27.38C138.452 29.04 138.212 30.54 137.732 31.88C137.252 33.22 136.562 34.37 135.662 35.33C134.782 36.29 133.712 37.03 132.452 37.55C131.212 38.05 129.822 38.3 128.282 38.3ZM128.282 35C129.582 35 130.682 34.7 131.582 34.1C132.502 33.5 133.202 32.63 133.682 31.49C134.182 30.35 134.432 28.99 134.432 27.41C134.432 25.01 133.892 23.15 132.812 21.83C131.752 20.51 130.242 19.85 128.282 19.85C127.002 19.85 125.902 20.15 124.982 20.75C124.062 21.33 123.352 22.19 122.852 23.33C122.372 24.45 122.132 25.81 122.132 27.41C122.132 29.79 122.672 31.65 123.752 32.99C124.832 34.33 126.342 35 128.282 35Z" fill="black"/>
<path d="M149.647 38.3C148.767 38.3 147.887 38.23 147.007 38.09C146.127 37.97 145.297 37.78 144.517 37.52C143.737 37.24 143.037 36.9 142.417 36.5C142.057 36.26 141.807 35.97 141.667 35.63C141.527 35.29 141.477 34.96 141.517 34.64C141.577 34.3 141.707 34.01 141.907 33.77C142.127 33.51 142.397 33.35 142.717 33.29C143.037 33.23 143.387 33.32 143.767 33.56C144.647 34.08 145.577 34.46 146.557 34.7C147.537 34.94 148.567 35.06 149.647 35.06C151.227 35.06 152.377 34.8 153.097 34.28C153.817 33.74 154.177 33.05 154.177 32.21C154.177 31.51 153.917 30.96 153.397 30.56C152.897 30.16 152.027 29.83 150.787 29.57L147.487 28.88C145.587 28.48 144.167 27.81 143.227 26.87C142.307 25.91 141.847 24.65 141.847 23.09C141.847 22.11 142.047 21.22 142.447 20.42C142.847 19.62 143.407 18.93 144.127 18.35C144.867 17.77 145.737 17.33 146.737 17.03C147.757 16.71 148.877 16.55 150.097 16.55C151.297 16.55 152.437 16.7 153.517 17C154.597 17.3 155.567 17.74 156.427 18.32C156.747 18.54 156.957 18.81 157.057 19.13C157.177 19.45 157.207 19.77 157.147 20.09C157.087 20.39 156.947 20.65 156.727 20.87C156.507 21.09 156.227 21.22 155.887 21.26C155.567 21.3 155.197 21.2 154.777 20.96C154.037 20.54 153.287 20.24 152.527 20.06C151.767 19.88 150.947 19.79 150.067 19.79C149.147 19.79 148.357 19.92 147.697 20.18C147.037 20.44 146.527 20.81 146.167 21.29C145.827 21.75 145.657 22.3 145.657 22.94C145.657 23.66 145.897 24.24 146.377 24.68C146.857 25.1 147.677 25.43 148.837 25.67L152.107 26.36C154.087 26.78 155.557 27.44 156.517 28.34C157.497 29.24 157.987 30.44 157.987 31.94C157.987 32.9 157.787 33.77 157.387 34.55C157.007 35.33 156.447 36 155.707 36.56C154.987 37.12 154.117 37.55 153.097 37.85C152.077 38.15 150.927 38.3 149.647 38.3Z" fill="black"/>
<path d="M49.52 58.2C48.8133 58.2 48.18 58.0667 47.62 57.8C47.0733 57.52 46.64 57.1467 46.32 56.68C46.0133 56.2133 45.86 55.6867 45.86 55.1C45.86 54.38 46.0467 53.8133 46.42 53.4C46.7933 52.9733 47.4 52.6667 48.24 52.48C49.08 52.2933 50.2067 52.2 51.62 52.2H52.62V53.64H51.64C50.8133 53.64 50.1533 53.68 49.66 53.76C49.1667 53.84 48.8133 53.98 48.6 54.18C48.4 54.3667 48.3 54.6333 48.3 54.98C48.3 55.42 48.4533 55.78 48.76 56.06C49.0667 56.34 49.4933 56.48 50.04 56.48C50.48 56.48 50.8667 56.38 51.2 56.18C51.5467 55.9667 51.82 55.68 52.02 55.32C52.22 54.96 52.32 54.5467 52.32 54.08V51.78C52.32 51.1133 52.1733 50.6333 51.88 50.34C51.5867 50.0467 51.0933 49.9 50.4 49.9C50.0133 49.9 49.5933 49.9467 49.14 50.04C48.7 50.1333 48.2333 50.2933 47.74 50.52C47.4867 50.64 47.26 50.6733 47.06 50.62C46.8733 50.5667 46.7267 50.46 46.62 50.3C46.5133 50.1267 46.46 49.94 46.46 49.74C46.46 49.54 46.5133 49.3467 46.62 49.16C46.7267 48.96 46.9067 48.8133 47.16 48.72C47.7733 48.4667 48.36 48.2867 48.92 48.18C49.4933 48.0733 50.0133 48.02 50.48 48.02C51.44 48.02 52.2267 48.1667 52.84 48.46C53.4667 48.7533 53.9333 49.2 54.24 49.8C54.5467 50.3867 54.7 51.1467 54.7 52.08V56.88C54.7 57.2933 54.6 57.6133 54.4 57.84C54.2 58.0533 53.9133 58.16 53.54 58.16C53.1667 58.16 52.8733 58.0533 52.66 57.84C52.46 57.6133 52.36 57.2933 52.36 56.88V55.92H52.52C52.4267 56.3867 52.24 56.7933 51.96 57.14C51.6933 57.4733 51.3533 57.7333 50.94 57.92C50.5267 58.1067 50.0533 58.2 49.52 58.2Z" fill="black"/>
<path d="M63.9472 58.16C63.5472 58.16 63.2405 58.0533 63.0272 57.84C62.8139 57.6133 62.7072 57.2933 62.7072 56.88V49.32C62.7072 48.9067 62.8139 48.5933 63.0272 48.38C63.2405 48.1667 63.5405 48.06 63.9272 48.06C64.3139 48.06 64.6139 48.1667 64.8272 48.38C65.0405 48.5933 65.1472 48.9067 65.1472 49.32V50.78L64.9272 50.18C65.1939 49.5133 65.6072 48.9867 66.1672 48.6C66.7272 48.2133 67.3939 48.02 68.1672 48.02C68.9539 48.02 69.6005 48.2067 70.1072 48.58C70.6139 48.9533 70.9672 49.5267 71.1672 50.3H70.8872C71.1539 49.5933 71.5939 49.04 72.2072 48.64C72.8205 48.2267 73.5272 48.02 74.3272 48.02C75.0739 48.02 75.6872 48.1667 76.1672 48.46C76.6605 48.7533 77.0272 49.2 77.2672 49.8C77.5072 50.3867 77.6272 51.1333 77.6272 52.04V56.88C77.6272 57.2933 77.5139 57.6133 77.2872 57.84C77.0739 58.0533 76.7672 58.16 76.3672 58.16C75.9672 58.16 75.6605 58.0533 75.4472 57.84C75.2339 57.6133 75.1272 57.2933 75.1272 56.88V52.14C75.1272 51.3933 75.0005 50.8467 74.7472 50.5C74.5072 50.1533 74.0939 49.98 73.5072 49.98C72.8539 49.98 72.3405 50.2133 71.9672 50.68C71.5939 51.1333 71.4072 51.7667 71.4072 52.58V56.88C71.4072 57.2933 71.3005 57.6133 71.0872 57.84C70.8739 58.0533 70.5672 58.16 70.1672 58.16C69.7672 58.16 69.4539 58.0533 69.2272 57.84C69.0139 57.6133 68.9072 57.2933 68.9072 56.88V52.14C68.9072 51.3933 68.7805 50.8467 68.5272 50.5C68.2872 50.1533 67.8805 49.98 67.3072 49.98C66.6539 49.98 66.1405 50.2133 65.7672 50.68C65.3939 51.1333 65.2072 51.7667 65.2072 52.58V56.88C65.2072 57.7333 64.7872 58.16 63.9472 58.16Z" fill="black"/>
<path d="M85.0263 58.2C83.9196 58.2 82.9663 57.9933 82.1663 57.58C81.3663 57.1667 80.7463 56.58 80.3063 55.82C79.8796 55.06 79.6663 54.16 79.6663 53.12C79.6663 52.1067 79.8729 51.22 80.2862 50.46C80.7129 49.7 81.2929 49.1067 82.0263 48.68C82.7729 48.24 83.6196 48.02 84.5663 48.02C85.2596 48.02 85.8796 48.1333 86.4262 48.36C86.9862 48.5867 87.4596 48.9133 87.8463 49.34C88.2463 49.7667 88.5463 50.2867 88.7463 50.9C88.9596 51.5 89.0663 52.18 89.0663 52.94C89.0663 53.18 88.9796 53.3667 88.8063 53.5C88.6463 53.62 88.4129 53.68 88.1062 53.68H81.6862V52.24H87.3063L86.9863 52.54C86.9863 51.9267 86.8929 51.4133 86.7063 51C86.5329 50.5867 86.2729 50.2733 85.9262 50.06C85.5929 49.8333 85.1729 49.72 84.6663 49.72C84.1063 49.72 83.6262 49.8533 83.2262 50.12C82.8396 50.3733 82.5396 50.74 82.3262 51.22C82.1262 51.6867 82.0263 52.2467 82.0263 52.9V53.04C82.0263 54.1333 82.2796 54.9533 82.7862 55.5C83.3062 56.0333 84.0663 56.3 85.0663 56.3C85.4129 56.3 85.7996 56.26 86.2262 56.18C86.6662 56.0867 87.0796 55.9333 87.4662 55.72C87.7462 55.56 87.9929 55.4933 88.2063 55.52C88.4196 55.5333 88.5863 55.6067 88.7063 55.74C88.8396 55.8733 88.9196 56.04 88.9463 56.24C88.9729 56.4267 88.9329 56.62 88.8262 56.82C88.7329 57.02 88.5662 57.1933 88.3262 57.34C87.8596 57.6333 87.3196 57.8533 86.7063 58C86.1063 58.1333 85.5463 58.2 85.0263 58.2Z" fill="black"/>
<path d="M94.8061 58.2C93.9528 58.2 93.1994 57.9933 92.5461 57.58C91.9061 57.1667 91.4061 56.58 91.0461 55.82C90.6861 55.0467 90.5061 54.14 90.5061 53.1C90.5061 52.0467 90.6861 51.1467 91.0461 50.4C91.4061 49.64 91.9061 49.0533 92.5461 48.64C93.1994 48.2267 93.9528 48.02 94.8061 48.02C95.6194 48.02 96.3261 48.22 96.9261 48.62C97.5394 49.02 97.9528 49.5467 98.1661 50.2H97.9461V45C97.9461 44.5867 98.0528 44.2733 98.2661 44.06C98.4794 43.8467 98.7861 43.74 99.1861 43.74C99.5861 43.74 99.8928 43.8467 100.106 44.06C100.333 44.2733 100.446 44.5867 100.446 45V56.88C100.446 57.2933 100.339 57.6133 100.126 57.84C99.9128 58.0533 99.6061 58.16 99.2061 58.16C98.8061 58.16 98.4994 58.0533 98.2861 57.84C98.0728 57.6133 97.9661 57.2933 97.9661 56.88V55.32L98.1861 55.92C97.9861 56.6133 97.5794 57.1667 96.9661 57.58C96.3528 57.9933 95.6328 58.2 94.8061 58.2ZM95.5061 56.3C95.9994 56.3 96.4328 56.18 96.8061 55.94C97.1794 55.7 97.4661 55.3467 97.6661 54.88C97.8794 54.4 97.9861 53.8067 97.9861 53.1C97.9861 52.0333 97.7594 51.24 97.3061 50.72C96.8528 50.1867 96.2528 49.92 95.5061 49.92C95.0128 49.92 94.5794 50.04 94.2061 50.28C93.8328 50.5067 93.5394 50.86 93.3261 51.34C93.1261 51.8067 93.0261 52.3933 93.0261 53.1C93.0261 54.1533 93.2528 54.9533 93.7061 55.5C94.1594 56.0333 94.7594 56.3 95.5061 56.3Z" fill="black"/>
<path d="M104.278 58.14C103.878 58.14 103.572 58.02 103.358 57.78C103.145 57.54 103.038 57.2067 103.038 56.78V49.44C103.038 49 103.145 48.6667 103.358 48.44C103.572 48.2 103.878 48.08 104.278 48.08C104.678 48.08 104.985 48.2 105.198 48.44C105.425 48.6667 105.538 49 105.538 49.44V56.78C105.538 57.2067 105.432 57.54 105.218 57.78C105.005 58.02 104.692 58.14 104.278 58.14ZM104.278 46.22C103.812 46.22 103.445 46.1067 103.178 45.88C102.925 45.64 102.798 45.3133 102.798 44.9C102.798 44.4733 102.925 44.1467 103.178 43.92C103.445 43.6933 103.812 43.58 104.278 43.58C104.758 43.58 105.125 43.6933 105.378 43.92C105.632 44.1467 105.758 44.4733 105.758 44.9C105.758 45.3133 105.632 45.64 105.378 45.88C105.125 46.1067 104.758 46.22 104.278 46.22Z" fill="black"/>
<path d="M111.896 58.2C111.043 58.2 110.289 57.9933 109.636 57.58C108.996 57.1667 108.496 56.58 108.136 55.82C107.776 55.0467 107.596 54.14 107.596 53.1C107.596 52.0467 107.776 51.1467 108.136 50.4C108.496 49.64 108.996 49.0533 109.636 48.64C110.289 48.2267 111.043 48.02 111.896 48.02C112.709 48.02 113.416 48.22 114.016 48.62C114.629 49.02 115.043 49.5467 115.256 50.2H115.036V45C115.036 44.5867 115.143 44.2733 115.356 44.06C115.569 43.8467 115.876 43.74 116.276 43.74C116.676 43.74 116.983 43.8467 117.196 44.06C117.423 44.2733 117.536 44.5867 117.536 45V56.88C117.536 57.2933 117.429 57.6133 117.216 57.84C117.003 58.0533 116.696 58.16 116.296 58.16C115.896 58.16 115.589 58.0533 115.376 57.84C115.163 57.6133 115.056 57.2933 115.056 56.88V55.32L115.276 55.92C115.076 56.6133 114.669 57.1667 114.056 57.58C113.443 57.9933 112.723 58.2 111.896 58.2ZM112.596 56.3C113.089 56.3 113.523 56.18 113.896 55.94C114.269 55.7 114.556 55.3467 114.756 54.88C114.969 54.4 115.076 53.8067 115.076 53.1C115.076 52.0333 114.849 51.24 114.396 50.72C113.943 50.1867 113.343 49.92 112.596 49.92C112.103 49.92 111.669 50.04 111.296 50.28C110.923 50.5067 110.629 50.86 110.416 51.34C110.216 51.8067 110.116 52.3933 110.116 53.1C110.116 54.1533 110.343 54.9533 110.796 55.5C111.249 56.0333 111.849 56.3 112.596 56.3Z" fill="black"/>
<path d="M123.348 58.2C122.641 58.2 122.008 58.0667 121.448 57.8C120.901 57.52 120.468 57.1467 120.148 56.68C119.841 56.2133 119.688 55.6867 119.688 55.1C119.688 54.38 119.875 53.8133 120.248 53.4C120.621 52.9733 121.228 52.6667 122.068 52.48C122.908 52.2933 124.035 52.2 125.448 52.2H126.448V53.64H125.468C124.641 53.64 123.981 53.68 123.488 53.76C122.995 53.84 122.641 53.98 122.428 54.18C122.228 54.3667 122.128 54.6333 122.128 54.98C122.128 55.42 122.281 55.78 122.588 56.06C122.895 56.34 123.321 56.48 123.868 56.48C124.308 56.48 124.695 56.38 125.028 56.18C125.375 55.9667 125.648 55.68 125.848 55.32C126.048 54.96 126.148 54.5467 126.148 54.08V51.78C126.148 51.1133 126.001 50.6333 125.708 50.34C125.415 50.0467 124.921 49.9 124.228 49.9C123.841 49.9 123.421 49.9467 122.968 50.04C122.528 50.1333 122.061 50.2933 121.568 50.52C121.315 50.64 121.088 50.6733 120.888 50.62C120.701 50.5667 120.555 50.46 120.448 50.3C120.341 50.1267 120.288 49.94 120.288 49.74C120.288 49.54 120.341 49.3467 120.448 49.16C120.555 48.96 120.735 48.8133 120.988 48.72C121.601 48.4667 122.188 48.2867 122.748 48.18C123.321 48.0733 123.841 48.02 124.308 48.02C125.268 48.02 126.055 48.1667 126.668 48.46C127.295 48.7533 127.761 49.2 128.068 49.8C128.375 50.3867 128.528 51.1467 128.528 52.08V56.88C128.528 57.2933 128.428 57.6133 128.228 57.84C128.028 58.0533 127.741 58.16 127.368 58.16C126.995 58.16 126.701 58.0533 126.488 57.84C126.288 57.6133 126.188 57.2933 126.188 56.88V55.92H126.348C126.255 56.3867 126.068 56.7933 125.788 57.14C125.521 57.4733 125.181 57.7333 124.768 57.92C124.355 58.1067 123.881 58.2 123.348 58.2Z" fill="black"/>
</svg>
